<?xml version="1.0" encoding="UTF-8"?>
<svg width="400" height="400" viewBox="0 0 400 400" fill="none" xmlns="http://www.w3.org/2000/svg">
  <rect width="400" height="400" rx="32" fill="#fbbf24"/>
  <ellipse cx="320" cy="80" rx="40" ry="20" fill="#2563eb" fill-opacity="0.7"/>
  <ellipse cx="80" cy="320" rx="40" ry="20" fill="#22c55e" fill-opacity="0.7"/>
  <!-- Student 1 -->
  <g>
    <ellipse cx="120" cy="220" rx="32" ry="40" fill="#f472b6"/>
    <circle cx="120" cy="180" r="24" fill="#fbbf24"/>
    <ellipse cx="120" cy="175" rx="8" ry="4" fill="#fff"/>
    <rect x="110" y="200" width="20" height="30" rx="8" fill="#2563eb"/>
    <rect x="110" y="230" width="20" height="8" rx="4" fill="#fff"/>
    <rect x="110" y="238" width="20" height="6" rx="3" fill="#22c55e"/>
  </g>
  <!-- Student 2 -->
  <g>
    <ellipse cx="280" cy="220" rx="32" ry="40" fill="#38bdf8"/>
    <circle cx="280" cy="180" r="24" fill="#fbbf24"/>
    <ellipse cx="280" cy="175" rx="8" ry="4" fill="#fff"/>
    <rect x="270" y="200" width="20" height="30" rx="8" fill="#22c55e"/>
    <rect x="270" y="230" width="20" height="8" rx="4" fill="#fff"/>
    <rect x="270" y="238" width="20" height="6" rx="3" fill="#2563eb"/>
  </g>
  <!-- Book -->
  <rect x="170" y="270" width="60" height="24" rx="6" fill="#fff" stroke="#2563eb" stroke-width="2"/>
  <rect x="170" y="282" width="60" height="6" rx="3" fill="#fbbf24"/>
  <rect x="170" y="288" width="60" height="4" rx="2" fill="#22c55e"/>
  <!-- Pencil -->
  <rect x="200" y="250" width="8" height="28" rx="4" fill="#f472b6"/>
  <polygon points="204,246 208,250 200,250" fill="#fbbf24"/>
  <!-- Title -->
  <text x="50%" y="60" text-anchor="middle" fill="#2563eb" font-size="1.5rem" font-family="Inter, Arial, sans-serif" font-weight="bold">Bem-vindo ao Eureka!</text>
  <text x="50%" y="90" text-anchor="middle" fill="#1e293b" font-size="1rem" font-family="Inter, Arial, sans-serif" opacity="0.8">Estude, pratique e evolua</text>
</svg>
